<?xml version="1.0" encoding="utf-8"?>
<!-- Generator: Adobe Illustrator 25.0.0, SVG Export Plug-In . SVG Version: 6.00 Build 0)  -->
<svg version="1.1" id="Capa_1" xmlns="http://www.w3.org/2000/svg" xmlns:xlink="http://www.w3.org/1999/xlink" x="0px" y="0px"
	 viewBox="0 0 60 60" style="enable-background:new 0 0 60 60;" xml:space="preserve">
<path d="M54.9,28.3c0-0.1,0-0.1,0-0.2c0,0,0,0,0,0C55,14.6,44.3,3.6,31,3V1c0-0.6-0.4-1-1-1s-1,0.4-1,1v2C15.7,3.6,5,14.6,5,28
	c0,0,0,0,0,0c0,0.1,0,0.1,0,0.2c0,0.1,0,0.1,0.1,0.2c0,0.1,0.1,0.1,0.1,0.1c0,0.1,0.1,0.1,0.1,0.2c0,0,0,0,0,0c0,0,0.1,0,0.1,0.1
	c0.1,0,0.1,0.1,0.2,0.1c0.1,0,0.1,0,0.2,0c0,0,0.1,0,0.1,0c0,0,0,0,0,0c0.1,0,0.1,0,0.2,0c0.1,0,0.1,0,0.2,0c0.1,0,0.1-0.1,0.2-0.1
	c0.1,0,0.1-0.1,0.2-0.1c0,0,0,0,0,0C8.2,26.9,10,26,12,26s3.8,0.9,5.2,2.6c0,0,0,0,0.1,0.1c0,0,0,0.1,0.1,0.1c0,0,0.1,0,0.1,0.1
	c0.1,0,0.1,0.1,0.2,0.1c0.1,0,0.2,0,0.2,0.1c0,0,0.1,0,0.1,0c0,0,0,0,0,0c0.1,0,0.1,0,0.1,0c0.1,0,0.1,0,0.2-0.1c0,0,0.1,0,0.1-0.1
	c0,0,0.1,0,0.1-0.1c0,0,0,0,0.1-0.1c0,0,0.1,0,0.1-0.1C20.2,26.9,22,26,24,26c1.9,0,3.6,0.9,5,2.4V55c0,1.7-1.3,3-3,3s-3-1.3-3-3
	c0-0.6-0.4-1-1-1s-1,0.4-1,1c0,2.8,2.2,5,5,5s5-2.2,5-5V28.4c1.4-1.5,3.1-2.4,5-2.4c2,0,3.8,0.9,5.2,2.6c0,0,0,0,0.1,0.1
	c0,0,0,0.1,0.1,0.1c0,0,0.1,0,0.1,0.1c0.1,0,0.1,0.1,0.2,0.1c0.1,0,0.2,0,0.2,0.1c0,0,0.1,0,0.1,0c0,0,0,0,0,0c0.1,0,0.1,0,0.1,0
	c0.1,0,0.1,0,0.2-0.1c0.1,0,0.1-0.1,0.1-0.1c0,0,0.1,0,0.1-0.1c0,0,0,0,0.1-0.1c0,0,0.1,0,0.1-0.1C44.2,26.9,46,26,48,26
	s3.8,0.9,5.2,2.6c0,0,0,0,0,0c0.1,0.1,0.2,0.1,0.2,0.2c0,0,0.1,0,0.1,0.1C53.7,29,53.9,29,54,29l0,0l0,0c0.1,0,0.2,0,0.4-0.1
	c0,0,0.1,0,0.1-0.1c0.1,0,0.1,0,0.2-0.1c0,0,0,0,0,0c0.1,0,0.1-0.1,0.1-0.2c0,0,0.1-0.1,0.1-0.1C54.9,28.4,54.9,28.3,54.9,28.3z
	 M48,24c-2.2,0-4.3,0.9-6,2.5c-1.7-1.6-3.8-2.5-6-2.5s-4.3,0.9-6,2.5c-1.7-1.6-3.8-2.5-6-2.5s-4.3,0.9-6,2.5c-1.7-1.6-3.8-2.5-6-2.5
	c-1.8,0-3.4,0.6-4.9,1.6C8.3,14,18.1,5,30,5s21.7,9,22.9,20.6C51.4,24.6,49.8,24,48,24z"/>
<g>
	<path d="M22.4,12.1c0.3-0.7,0.6-2,0.7-2.9l1.2-0.1c-0.3,1-0.8,2.4-1.1,2.9L22.4,12.1z"/>
</g>
<g>
	<path d="M22.4,18.5c0.3-0.7,0.6-2,0.7-2.9l1.2-0.1c-0.3,1-0.8,2.4-1.1,2.9L22.4,18.5z"/>
</g>
<g>
	<path d="M41.9,13.2c0.3-0.7,0.6-2,0.7-2.9l1.2-0.1c-0.3,1-0.8,2.4-1.1,2.9L41.9,13.2z"/>
</g>
<g>
	<path d="M46.9,22.5c0.3-0.7,0.6-2,0.7-2.9l1.2-0.1c-0.3,1-0.8,2.4-1.1,2.9L46.9,22.5z"/>
</g>
<g>
	<path d="M15.2,23.4c0.3-0.7,0.6-2,0.7-2.9l1.2-0.1c-0.3,1-0.8,2.4-1.1,2.9L15.2,23.4z"/>
</g>
<g>
	<path d="M36.9,19.7c0.3-0.7,0.6-2,0.7-2.9l1.2-0.1c-0.3,1-0.8,2.4-1.1,2.9L36.9,19.7z"/>
</g>
</svg>
